<svg xmlns="http://www.w3.org/2000/svg" width="200" height="200" viewBox="0 0 200 200">
  <g id="mobile_development" transform="translate(-1252.846 -829.846)">
    <path id="Path_18" data-name="Path 18" d="M114.229,202H89.771a5.766,5.766,0,0,1-5.591-4.537l-2.649-13.22a84.222,84.222,0,0,1-23.194-9.634l-11.211,7.454a5.714,5.714,0,0,1-7.171-.669L22.663,164.077A5.734,5.734,0,0,1,22,156.829l7.429-11.143A83.446,83.446,0,0,1,19.8,122.474L6.571,119.829A5.777,5.777,0,0,1,2,114.229V89.771A5.766,5.766,0,0,1,6.537,84.18l13.246-2.657a83.517,83.517,0,0,1,9.623-23.209L21.937,47.143a5.714,5.714,0,0,1,.669-7.177L39.923,22.651a5.731,5.731,0,0,1,7.246-.674L58.311,29.42a84.171,84.171,0,0,1,23.214-9.649l2.646-13.2A5.777,5.777,0,0,1,89.771,2h24.457a5.766,5.766,0,0,1,5.591,4.537l2.649,13.22a83.662,83.662,0,0,1,23.246,9.654l11.143-7.471a5.714,5.714,0,0,1,7.177.669l17.317,17.314a5.714,5.714,0,0,1,.674,7.246L174.6,58.337a84.081,84.081,0,0,1,9.634,23.191l13.174,2.643a5.777,5.777,0,0,1,4.594,5.6v24.457a5.766,5.766,0,0,1-4.537,5.591l-13.22,2.651a84.08,84.08,0,0,1-9.634,23.191l7.457,11.211a5.714,5.714,0,0,1-.671,7.171l-17.317,17.317a5.734,5.734,0,0,1-7.246.674l-11.143-7.449a83.663,83.663,0,0,1-23.231,9.654l-2.629,13.186A5.777,5.777,0,0,1,114.229,202ZM58.286,168.351a2.82,2.82,0,0,1,1.511.434A78.474,78.474,0,0,0,84.611,179.1a2.857,2.857,0,0,1,2.171,2.229l2.991,14.96H114.2l3.023-14.96A2.857,2.857,0,0,1,119.4,179.1a77.942,77.942,0,0,0,24.806-10.309,2.96,2.96,0,0,1,3.143.037l12.683,8.486,17.28-17.274-8.331-12.5a2.8,2.8,0,0,1-.286-.417,2.857,2.857,0,0,1,.074-2.906A78.4,78.4,0,0,0,179.08,119.4a2.857,2.857,0,0,1,2.229-2.171l14.977-3V89.771l-14.96-3A2.857,2.857,0,0,1,179.1,84.6a78.4,78.4,0,0,0-10.311-24.814,2.857,2.857,0,0,1-.089-2.906,2.757,2.757,0,0,1,.357-.509l8.251-12.409L160.034,26.677l-12.674,8.5a2.954,2.954,0,0,1-3.143.037A77.943,77.943,0,0,0,119.411,24.9a2.857,2.857,0,0,1-2.174-2.229l-3.011-14.96H89.771l-3,14.96A2.857,2.857,0,0,1,84.6,24.9,78.475,78.475,0,0,0,59.789,35.214a2.857,2.857,0,0,1-3.114-.037L43.96,26.691,26.677,43.963l8.5,12.709a2.857,2.857,0,0,1,.037,3.114A77.931,77.931,0,0,0,24.929,84.591a2.857,2.857,0,0,1-2.4,2.211L7.714,89.774v24.454l14.911,2.989a2.88,2.88,0,0,1,2.306,2.191,77.937,77.937,0,0,0,10.286,24.806,2.857,2.857,0,0,1-.034,3.111l-8.457,12.711,17.243,17.289,12.5-8.337a2.9,2.9,0,0,1,1.811-.637Z" transform="translate(1250.846 827.846)" fill="#037fff"/>
    <path id="Path_19" data-name="Path 19" d="M48.019,63.665a3.188,3.188,0,0,1-1.39-6.057,52.58,52.58,0,0,0,7.845-4.661A3.188,3.188,0,0,1,58.2,58.118a59.34,59.34,0,0,1-8.792,5.222A3.188,3.188,0,0,1,48.019,63.665Z" transform="translate(1329.397 920.578)" fill="#037fff"/>
    <path id="Path_20" data-name="Path 20" d="M71.369,126.738a55.369,55.369,0,1,1,55.369-55.369c0,.925-.029,1.822-.084,2.747a2.679,2.679,0,0,1-2.795,2.468,2.637,2.637,0,0,1-2.468-2.795c.05-.815.074-1.606.074-2.42a50.1,50.1,0,1,0-50.1,50.1q1.186,0,2.373-.074a2.642,2.642,0,1,1,.33,5.273C73.167,126.712,72.268,126.738,71.369,126.738Z" transform="translate(1281.477 858.477)" fill="#037fff"/>
    <path id="Path_21" data-name="Path 21" d="M55.577,59.483a3.188,3.188,0,0,1-2.585-5.053,54.227,54.227,0,0,0,4.674-7.8,3.188,3.188,0,1,1,5.716,2.825,60.49,60.49,0,0,1-5.219,8.706A3.188,3.188,0,0,1,55.577,59.483Z" transform="translate(1343.535 906.43)" fill="#037fff"/>
    <g id="Rectangle_48" data-name="Rectangle 48" transform="translate(1330.846 892)" fill="none" stroke="#037fff" stroke-width="5">
      <rect width="45" height="76" rx="5" stroke="none"/>
      <rect x="2.5" y="2.5" width="40" height="71" rx="2.5" fill="none"/>
    </g>
  </g>
</svg>
