<svg xmlns="http://www.w3.org/2000/svg" width="63.651" height="61" viewBox="0 0 63.651 61">
  <path id="github" d="M31.826.5C14.242.5,0,14.5,0,31.774A31.326,31.326,0,0,0,21.761,61.446c1.591.294,2.175-.674,2.175-1.5,0-.743-.027-2.71-.04-5.318-8.853,1.886-10.72-4.2-10.72-4.2-1.448-3.61-3.541-4.575-3.541-4.575-2.883-1.939.223-1.9.223-1.9a6.658,6.658,0,0,1,4.875,3.222c2.838,4.782,7.45,3.4,9.269,2.6A6.622,6.622,0,0,1,26.017,45.6c-7.068-.782-14.5-3.472-14.5-15.454A11.948,11.948,0,0,1,14.8,21.752a10.942,10.942,0,0,1,.278-8.277s2.665-.838,8.752,3.206a30.514,30.514,0,0,1,15.913,0c6.047-4.045,8.712-3.206,8.712-3.206a11.244,11.244,0,0,1,.318,8.277,12,12,0,0,1,3.262,8.391c0,12.014-7.439,14.658-14.52,15.427,1.114.939,2.148,2.856,2.148,5.787,0,4.185-.04,7.548-.04,8.564,0,.82.557,1.8,2.188,1.485A31.231,31.231,0,0,0,63.651,31.774C63.651,14.5,49.4.5,31.826.5Z" transform="translate(0 -0.5)" fill="#fff"/>
</svg>
