<svg xmlns="http://www.w3.org/2000/svg" width="255.941" height="262.338" viewBox="0 0 255.941 262.338">
  <g id="unity" transform="translate(-6196 -3683)">
    <path id="Path_101" data-name="Path 101" d="M6306.48,3741.392l-61.8,61.8c-.511,0,0,27.071,0,27.071l59.249,58.228,97.558,26.56,36.775-84.788-29.625-120.031Z" fill="#fff"/>
    <path id="unity-69" d="M166.872,131.237l45.91-79.275,22.184,79.275-22.185,79.256-45.909-79.256ZM144.5,144.111l45.916,79.262-79.966-20.486-57.77-58.776ZM190.4,39.078,144.5,118.353H52.676l57.77-58.78Zm65.539,65.18L227.933.06,123.393,27.985,107.918,55.192l-31.4-.225L0,131.244,76.517,207.5h0l31.388-.232,15.5,27.207L227.933,262.4,255.94,158.22l-15.906-26.982L255.94,104.26Z" transform="translate(6196 3682.94)" fill="#222c37"/>
  </g>
</svg>
